<?xml version="1.0" encoding="utf-8"?>
<svg version="1.1" id="Layer_1" x="0px" y="0px" viewBox="0 0 900 900" style="enable-background:new 0 0 900 900;" xmlns="http://www.w3.org/2000/svg">
  <style type="text/css">
	.st0{fill:#012E44;}
	.st1{fill:#A4E0DE;}
	.st2{fill:#13C5E2;}
</style>
  <g style="" transform="matrix(1.557517, 0, 0, 1.557517, -261.022278, -249.249588)">
    <path class="st1" d="M448,394.8L448,394.8c-19-0.7-36.8-11-46.9-27.1c0,0,0.1,0,0.1,0c-8.5-13.6-10.9-30.5-6.7-45.9 c3.4-12.4,11.1-23.5,21.4-31.1c10.9-8,24.4-12,37.8-11.1c15.3,1,29.8,8.3,39.9,19.9c10.6,12.4,15.5,28.8,13.5,45 c37.6,9.8,71.4,28.9,98.9,54.8c7.9-19.7,11.9-40.9,11.9-62.2h0.1c0-21.2-4-42.3-11.8-61.9c-7.5-19-18.6-36.5-32.4-51.5 c-15.3-16.7-34-30.3-54.6-39.7c-23-10.4-48.1-15.5-73.4-14.9c-20.2,0.5-40.3,4.6-59.1,12.2c-17,6.9-32.8,16.6-46.7,28.6 c-13.8,11.9-25.7,26.1-35,41.8c-9.5,16-16.3,33.6-20,51.9c-4.3,21.3-4.5,43.5-0.4,64.8c4.6,24.4,14.8,47.7,29.4,67.7 c3.5,4.8,7.3,9.4,11.3,13.8C356.5,415.7,400.6,395.3,448,394.8z"/>
    <g>
      <path class="st0" d="M618.1,558.8c-0.5-22.7-5.7-45.3-15.2-65.9c-2.3-5.1-4.9-10-7.7-14.8c-5.9-10-12.8-19.4-20.5-27.9 c-29.4,32.3-71.2,53.1-117.8,55c-0.3,0-0.6,0-0.8,0c-1.1,0-2.2,0.1-3.3,0.1c-0.3,0-0.7,0-1,0c19.8,0.7,37.4,11.4,47.2,27.2 c0,0-0.1,0-0.1,0c8.5,13.6,10.9,30.5,6.6,46c-3.5,12.5-11.3,23.7-21.8,31.3c-11,8-24.8,11.8-38.4,10.7c-14.5-1.2-28.2-8-38-18.8 c-10.8-11.9-16.1-28.1-14.6-44.1c-37.8-9.8-71.7-29.1-99.2-55.2c-7.3,18.8-11.5,39.3-11.5,60.7h0c0,20.6,3.7,41.2,11.2,60.4 c7.1,18.5,17.6,35.6,30.7,50.5c12.5,14.2,27.5,26.3,44,35.6c16.9,9.5,35.5,16.1,54.7,19.2c19.9,3.3,40.4,3,60.2-0.9 c18.7-3.7,36.6-10.6,53-20.3c16.1-9.6,30.6-21.9,42.7-36.2c12.8-15.2,23-32.6,29.7-51.3C615.2,600.5,618.6,579.6,618.1,558.8z"/>
      <path class="st2" d="M574.5,450C574.5,450,574.5,450,574.5,450c-31.7-35.1-76.3-55.5-123.6-55.2l0,0c-0.9,0-1.9,0-2.8,0 c-47.4,0.6-91.5,21-122.5,55.1l0,0l0.1,0.2c31.6,34.7,77.4,55.2,124.3,55.2l0.1,0c0.9,0,1.8,0,2.7,0c1.1,0,2.2,0,3.3-0.1 c0.3,0,0.6,0,0.8,0c46.5-1.9,88.4-22.7,117.8-55C574.6,450.1,574.5,450,574.5,450z"/>
    </g>
  </g>
</svg>